<?xml version="1.0" encoding="utf-8"?>
<!-- Generator: Adobe Illustrator 19.2.0, SVG Export Plug-In . SVG Version: 6.00 Build 0)  -->
<!DOCTYPE svg PUBLIC "-//W3C//DTD SVG 1.1//EN" "http://www.w3.org/Graphics/SVG/1.1/DTD/svg11.dtd">
<svg version="1.1" id="Ebene_1" xmlns="http://www.w3.org/2000/svg" xmlns:xlink="http://www.w3.org/1999/xlink" x="0px" y="0px"
	 viewBox="0 0 400 400" style="enable-background:new 0 0 400 400; background-color:#004264;" xml:space="preserve">
<style type="text/css">
	.st0{fill:#FFFFFF;}
</style>
<g>
	<path class="st0" d="M127.4,80.1L89.2,16.5L108.9,88C114.8,85,121,82.3,127.4,80.1z"/>
	<path class="st0" d="M203.3,0l-18.7,71.8c6.8,0.3,13.5,1.2,20,2.4L203.3,0z"/>
	<path class="st0" d="M318.1,171.7l63.6-38.2l-71.5,19.7C313.2,159.1,315.9,165.3,318.1,171.7z"/>
	<path class="st0" d="M310.4,42.9l-52.1,52.9c5.6,3.7,11,7.7,16.1,12.1L310.4,42.9z"/>
	<path class="st0" d="M324,248.9l74.2-1.3l-71.8-18.7C326,235.7,325.2,242.4,324,248.9z"/>
	<path class="st0" d="M290.4,318.7l64.9,36l-52.9-52.1C298.8,308.2,294.8,313.6,290.4,318.7z"/>
	<path class="st0" d="M288.9,290.7c-0.1,4.4-0.5,8.7-1.1,12.8c15.9-22.5,25.2-49.9,25.2-79.5C313,147.3,250.2,85,172.8,85
		c-21.8,0-42.5,4.9-60.9,13.7c36.9,15.3,59.2,41.6,74.7,68.4C251.4,179.4,291,226,288.9,290.7z"/>
	<path class="st0" d="M175.3,202.4c-0.2,0-0.5,0-0.7,0c-20.2-41.1-48.9-76.2-128.2-73.1c-17.8,0.7-33.1,4.4-46.3,10.4v244.7
		c11.6,4.6,24,7.4,37.8,7.6c70.6,1.1,88.5-41,92.8-40.3c70.8,12,123.5-20.1,127.8-70.1C261.2,250,232.2,206,175.3,202.4z"/>
</g>
</svg>
